<svg version="1.1" xmlns="http://www.w3.org/2000/svg" xmlns:xlink="http://www.w3.org/1999/xlink" width="780" height="620"><defs/><g><g transform="translate(-46,-126) scale(1,1)"><rect fill="#C0C0C0" stroke="none" x="63" y="215" width="128" height="15" opacity="0.2"/></g><g transform="translate(-46,-126) scale(1,1)"><rect fill="#C0C0C0" stroke="none" x="63" y="229" width="320" height="226" opacity="0.2"/></g><g transform="translate(-46,-126) scale(1,1)"><rect fill="#ffffff" stroke="none" x="56" y="223" width="320" height="225"/></g><g transform="translate(-46,-126) scale(1,1)"><path fill="none" stroke="#000000" d="M 56 223 L 376 223 L 376 448 L 56 448 L 56 223 Z Z" stroke-miterlimit="10"/></g><g transform="translate(-46,-126) scale(1,1)"><rect fill="#ffffff" stroke="none" x="56" y="208" width="128" height="15"/></g><g transform="translate(-46,-126) scale(1,1)"><path fill="none" stroke="#000000" d="M 56 208 L 184 208 L 184 223 L 56 223 L 56 208 Z Z" stroke-miterlimit="10"/></g><g transform="translate(-46,-126) scale(1,1)"><rect fill="#ffffff" stroke="none" x="56" y="222" width="320" height="226"/></g><g transform="translate(-46,-126) scale(1,1)"><path fill="none" stroke="#000000" d="M 56 222 L 376 222 L 376 448 L 56 448 L 56 222 Z Z" stroke-miterlimit="10"/></g><g transform="translate(-46,-126) scale(1,1)"><path fill="none" stroke="#000000" d="M 175 211 L 169 218 L 181 218 L 175 211" stroke-miterlimit="10"/></g><g transform="translate(-46,-126) scale(1,1)"><g><path fill="none" stroke="none"/><text fill="#000000" stroke="none" font-family="Arial" font-size="13px" font-style="normal" font-weight="bold" text-decoration="none" x="195" y="242.5">Model1</text></g></g><g transform="translate(-46,-126) scale(1,1)"><rect fill="#C0C0C0" stroke="none" x="551" y="143" width="108.79999999999995" height="15" opacity="0.2"/></g><g transform="translate(-46,-126) scale(1,1)"><rect fill="#C0C0C0" stroke="none" x="551" y="157" width="272" height="218" opacity="0.2"/></g><g transform="translate(-46,-126) scale(1,1)"><rect fill="#ffffff" stroke="none" x="544" y="151" width="272" height="217"/></g><g transform="translate(-46,-126) scale(1,1)"><path fill="none" stroke="#000000" d="M 544 151 L 816 151 L 816 368 L 544 368 L 544 151 Z Z" stroke-miterlimit="10"/></g><g transform="translate(-46,-126) scale(1,1)"><rect fill="#ffffff" stroke="none" x="544" y="136" width="108.79999999999995" height="15"/></g><g transform="translate(-46,-126) scale(1,1)"><path fill="none" stroke="#000000" d="M 544 136 L 652.8 136 L 652.8 151 L 544 151 L 544 136 Z Z" stroke-miterlimit="10"/></g><g transform="translate(-46,-126) scale(1,1)"><rect fill="#ffffff" stroke="none" x="544" y="150" width="272" height="218"/></g><g transform="translate(-46,-126) scale(1,1)"><path fill="none" stroke="#000000" d="M 544 150 L 816 150 L 816 368 L 544 368 L 544 150 Z Z" stroke-miterlimit="10"/></g><g transform="translate(-46,-126) scale(1,1)"><g><path fill="none" stroke="none"/><text fill="#000000" stroke="none" font-family="Arial" font-size="13px" font-style="normal" font-weight="bold" text-decoration="none" x="651" y="170.5">Package1</text></g></g><g transform="translate(-46,-126) scale(1,1)"><rect fill="#C0C0C0" stroke="none" x="151" y="327" width="67.19999999999999" height="15" opacity="0.2"/></g><g transform="translate(-46,-126) scale(1,1)"><rect fill="#C0C0C0" stroke="none" x="151" y="341" width="168" height="82" opacity="0.2"/></g><g transform="translate(-46,-126) scale(1,1)"><rect fill="#ffffff" stroke="none" x="144" y="335" width="168" height="81"/></g><g transform="translate(-46,-126) scale(1,1)"><path fill="none" stroke="#000000" d="M 144 335 L 312 335 L 312 416 L 144 416 L 144 335 Z Z" stroke-miterlimit="10"/></g><g transform="translate(-46,-126) scale(1,1)"><rect fill="#ffffff" stroke="none" x="144" y="320" width="67.19999999999999" height="15"/></g><g transform="translate(-46,-126) scale(1,1)"><path fill="none" stroke="#000000" d="M 144 320 L 211.2 320 L 211.2 335 L 144 335 L 144 320 Z Z" stroke-miterlimit="10"/></g><g transform="translate(-46,-126) scale(1,1)"><rect fill="#ffffff" stroke="none" x="144" y="334" width="168" height="82"/></g><g transform="translate(-46,-126) scale(1,1)"><path fill="none" stroke="#000000" d="M 144 334 L 312 334 L 312 416 L 144 416 L 144 334 Z Z" stroke-miterlimit="10"/></g><g transform="translate(-46,-126) scale(1,1)"><path fill="none" stroke="#000000" d="M 203.2 323 L 203.2 327" stroke-miterlimit="10"/></g><g transform="translate(-46,-126) scale(1,1)"><path fill="none" stroke="#000000" d="M 200.2 331 L 200.2 327 L 206.2 327" stroke-miterlimit="10"/></g><g transform="translate(-46,-126) scale(1,1)"><path fill="none" stroke="#000000" d="M 206.2 331 L 206.2 327 L 200.2 327" stroke-miterlimit="10"/></g><g transform="translate(-46,-126) scale(1,1)"><g><path fill="none" stroke="none"/><text fill="#000000" stroke="none" font-family="Arial" font-size="13px" font-style="normal" font-weight="bold" text-decoration="none" x="191.5" y="354.5">Subsystem1</text></g></g><g transform="translate(-46,-126) scale(1,1)"><path fill="none" stroke="#000000" d="M 228 320 L 228 300 L 342 300 L 342 368 L 312 368" stroke-miterlimit="10" stroke-dasharray="3"/></g><g transform="translate(-46,-126) scale(1,1)"><path fill="none" stroke="#000000" d="M 322.16267485762415 363.790482243984 L 312 368 L 322.16267485762415 372.209517756016" stroke-miterlimit="10"/></g><g transform="translate(-46,-126) scale(1,1)"><path fill="none" stroke="#000000" d="M 377 302 L 543 274" stroke-miterlimit="10" stroke-dasharray="3"/></g><g transform="translate(-46,-126) scale(1,1)"><path fill="none" stroke="#000000" d="M 533.6790305053867 279.841192316684 L 543 274 L 532.278732565784 271.53942596046795" stroke-miterlimit="10"/></g><g transform="translate(-46,-126) scale(1,1)"><path fill="#C0C0C0" stroke="none" d="M 63 577 L 268 577 L 268 742 L 63 742" opacity="0.2"/></g><g transform="translate(-46,-126) scale(1,1)"><path fill="#C0C0C0" stroke="none" d="M 63 577 L 73 567 L 278 567 L 268 577" opacity="0.2"/></g><g transform="translate(-46,-126) scale(1,1)"><path fill="#C0C0C0" stroke="none" d="M 278 567 L 268 577 L 268 742 L 278 732" opacity="0.2"/></g><g transform="translate(-46,-126) scale(1,1)"><path fill="#ffffff" stroke="none" d="M 56 570 L 261 570 L 261 735 L 56 735"/></g><g transform="translate(-46,-126) scale(1,1)"><path fill="#ffffff" stroke="none" d="M 56 570 L 66 560 L 271 560 L 261 570"/></g><g transform="translate(-46,-126) scale(1,1)"><path fill="#ffffff" stroke="none" d="M 271 560 L 261 570 L 261 735 L 271 725"/></g><g transform="translate(-46,-126) scale(1,1)"><path fill="none" stroke="#000000" d="M 56 570 L 261 570 L 261 735 L 56 735 L 56 570" stroke-miterlimit="10"/></g><g transform="translate(-46,-126) scale(1,1)"><path fill="none" stroke="#000000" d="M 56 570 L 66 560 L 271 560 L 261 570 L 56 570" stroke-miterlimit="10"/></g><g transform="translate(-46,-126) scale(1,1)"><path fill="none" stroke="#000000" d="M 271 560 L 261 570 L 261 735 L 271 725 L 271 560" stroke-miterlimit="10"/></g><g transform="translate(-46,-126) scale(1,1)"><g><path fill="none" stroke="none"/><text fill="#000000" stroke="none" font-family="Arial" font-size="13px" font-style="normal" font-weight="bold" text-decoration="none" x="115.5" y="589.5">NodeInstance1</text><path fill="none" stroke="#000000" d="M 204.5 589.5 L 113.5 589.5" stroke-miterlimit="10"/></g></g><g transform="translate(-46,-126) scale(1,1)"><rect fill="#C0C0C0" stroke="none" x="97" y="639" width="150" height="44" opacity="0.2"/></g><g transform="translate(-46,-126) scale(1,1)"><rect fill="#ffffff" stroke="none" x="90" y="632" width="150" height="44"/></g><g transform="translate(-46,-126) scale(1,1)"><path fill="none" stroke="#000000" d="M 90 632 L 240 632 L 240 676 L 90 676 L 90 632 Z Z" stroke-miterlimit="10"/></g><g transform="translate(-46,-126) scale(1,1)"><rect fill="#ffffff" stroke="none" x="80" y="639" width="20" height="10"/></g><g transform="translate(-46,-126) scale(1,1)"><path fill="none" stroke="#000000" d="M 80 639 L 100 639 L 100 649 L 80 649 L 80 639 Z Z" stroke-miterlimit="10"/></g><g transform="translate(-46,-126) scale(1,1)"><rect fill="#ffffff" stroke="none" x="80" y="659" width="20" height="10"/></g><g transform="translate(-46,-126) scale(1,1)"><path fill="none" stroke="#000000" d="M 80 659 L 100 659 L 100 669 L 80 669 L 80 659 Z Z" stroke-miterlimit="10"/></g><g transform="translate(-46,-126) scale(1,1)"><g><path fill="none" stroke="none"/><text fill="#000000" stroke="none" font-family="Arial" font-size="13px" font-style="normal" font-weight="bold" text-decoration="none" x="108.5" y="651.5">ComponentInstance1</text><path fill="none" stroke="#000000" d="M 235.5 651.5 L 104.5 651.5" stroke-miterlimit="10"/></g></g><g transform="translate(-46,-126) scale(1,1)"><path fill="#C0C0C0" stroke="none" d="M 424.2 583 L 472.91999999999996 583 L 493.79999999999995 603.88 L 493.79999999999995 670 L 424.2 670" opacity="0.2"/></g><g transform="translate(-46,-126) scale(1,1)"><path fill="#ffffff" stroke="none" d="M 417.20000000000005 576 L 465.91999999999996 576 L 486.79999999999995 596.88 L 486.79999999999995 663 L 417.20000000000005 663"/></g><g transform="translate(-46,-126) scale(1,1)"><path fill="none" stroke="#000000" d="M 417.20000000000005 576 L 465.91999999999996 576 L 486.79999999999995 596.88 L 486.79999999999995 663 L 417.20000000000005 663 L 417.20000000000005 576" stroke-miterlimit="10"/></g><g transform="translate(-46,-126) scale(1,1)"><path fill="none" stroke="#000000" d="M 465.91999999999996 576 L 465.91999999999996 596.88 L 486.79999999999995 596.88 L 465.91999999999996 576" stroke-miterlimit="10"/></g><g transform="translate(-46,-126) scale(1,1)"><g><path fill="none" stroke="none"/><text fill="#000000" stroke="none" font-family="Arial" font-size="13px" font-style="normal" font-weight="bold" text-decoration="none" x="402.5" y="682.5">ArtifactInstance1</text><path fill="none" stroke="#000000" d="M 503.5 682.5 L 400.5 682.5" stroke-miterlimit="10"/></g></g><g transform="translate(-46,-126) scale(1,1)"><rect fill="#C0C0C0" stroke="none" x="631" y="559" width="96" height="72" opacity="0.2"/></g><g transform="translate(-46,-126) scale(1,1)"><rect fill="#ffffff" stroke="none" x="624" y="552" width="96" height="72"/></g><g transform="translate(-46,-126) scale(1,1)"><path fill="none" stroke="#000000" d="M 624 552 L 720 552 L 720 624 L 624 624 L 624 552 Z Z" stroke-miterlimit="10"/></g><g transform="translate(-46,-126) scale(1,1)"><rect fill="#ffffff" stroke="none" x="624" y="552" width="96" height="72"/></g><g transform="translate(-46,-126) scale(1,1)"><path fill="none" stroke="#000000" d="M 624 552 L 720 552 L 720 624 L 624 624 L 624 552 Z Z" stroke-miterlimit="10"/></g><g transform="translate(-46,-126) scale(1,1)"><g><path fill="none" stroke="none"/><text fill="#000000" stroke="none" font-family="Arial" font-size="13px" font-style="normal" font-weight="bold" text-decoration="none" x="649.5" y="571.5">Object1</text><path fill="none" stroke="#000000" d="M 695.5 571.5 L 648.5 571.5" stroke-miterlimit="10"/></g></g></g></svg>